<?xml version="1.0" encoding="UTF-8"?>
<svg width="110px" height="32px" viewBox="0 0 110 32" version="1.1" xmlns="http://www.w3.org/2000/svg" xmlns:xlink="http://www.w3.org/1999/xlink">
    <!-- Generator: Sketch 59.1 (86144) - https://sketch.com -->
    <title>logoWithWolfWhite</title>
    <desc>Created with Sketch.</desc>
    <g id="Page-1" stroke="none" stroke-width="1" fill="none" fill-rule="evenodd">
        <g id="logoWithWolfWhite" fill="#F4F4F4" fill-rule="nonzero">
            <path d="M47.3019838,18.4984429 C47.3019838,22.4236696 44.3825965,22.914323 42.2973197,22.914323 C40.359239,22.914323 38.5683543,22.3010063 38.5683543,22.3010063 L38.5683543,18.9400309 C38.5683543,18.9400309 40.7762944,19.5042823 41.4877417,19.5042823 C42.1991891,19.5042823 42.7389077,19.4061516 42.7389077,18.7683022 C42.7389077,18.2040509 42.2727871,18.0077896 41.6349378,17.7133976 L41.0461537,17.4435382 C39.9421837,16.9283522 38.372093,16.0451762 38.372093,13.6655076 C38.372093,10.1818688 41.0952191,9.42135615 43.3767571,9.42135615 C45.4620338,9.42135615 46.8113305,10.0346728 46.8113305,10.0346728 L46.8113305,13.2975176 C46.8113305,13.2975176 45.1676418,12.7823315 43.8919431,12.7823315 C43.3276918,12.7823315 42.9106364,12.9295275 42.9106364,13.4201809 C42.9106364,14.0089649 43.4503551,14.2052262 44.0636718,14.4750856 L44.5543251,14.6958795 C45.7073605,15.2110655 47.3019838,16.0451762 47.3019838,18.4984429 Z M56.5630657,22.4972676 C56.5630657,22.4972676 54.6740504,22.914323 53.2511556,22.914323 C51.9263917,22.914323 49.4485923,22.767127 49.4485923,19.160825 L49.4485923,12.6351355 L49.4485923,9.66668284 L49.4485923,6.92431496 L54.109799,5.74145608 L54.109799,9.66668284 L56.5630657,9.66668284 L55.949749,12.6351355 L54.109799,12.6351355 L54.109799,18.3267142 C54.109799,19.2098902 54.3796583,19.3816189 54.8948443,19.3816189 C55.2383017,19.3816189 56.5630657,19.1853576 56.5630657,19.1853576 L56.5630657,22.4972676 Z M66.3883989,13.5673769 C66.3883989,13.5673769 65.5052229,13.3220502 64.6711123,13.3220502 C63.7879362,13.3220502 63.1255542,13.7636382 63.1255542,13.7636382 L63.1255542,22.6689963 L58.4643475,22.6689963 L58.4643475,9.66668284 L62.1687802,9.66668284 L62.8556949,10.9178488 C63.1255542,10.1082708 63.8615343,9.42135615 64.9409716,9.42135615 C65.9958763,9.42135615 66.3883989,9.69121548 66.3883989,9.69121548 L66.3883989,13.5673769 Z M72.9263548,5.74145608 C72.9263548,7.01715479 71.9205154,8.07205948 70.6202841,8.07205948 C69.3200527,8.07205948 68.3142134,7.01715479 68.3142134,5.74145608 C68.3142134,4.46575739 69.3200527,3.41085271 70.6202841,3.41085271 C71.9205154,3.41085271 72.9263548,4.46575739 72.9263548,5.74145608 Z M72.9508875,22.6689963 L68.2896807,22.6689963 L68.2896807,9.66668284 L72.9508875,9.66668284 L72.9508875,22.6689963 Z M81.9666427,9.66668284 L86.9958398,9.66668284 L83.5857987,22.6689963 L77.8942199,22.6689963 L74.4841793,9.66668284 L79.513376,9.66668284 C80.3296308,15.0921805 80.7385086,17.8128931 80.7400093,17.8288206 L81.9666427,9.66668284 Z M97.9987408,17.7133976 L91.6938452,17.7133976 C91.6938452,19.1117596 92.3807602,19.3816189 93.5337956,19.3816189 C94.9321574,19.3816189 97.3363583,18.8664329 97.3363583,18.8664329 L97.3363583,22.2519409 C97.3363583,22.2519409 95.4718762,22.914323 93.5337956,22.914323 C90.6144075,22.914323 87.0571712,22.4482023 87.0571712,16.2169049 C87.0571712,10.7215874 89.8538948,9.42135615 92.7978154,9.42135615 C95.8153337,9.42135615 97.9987408,10.9669141 97.9987408,16.1678396 L97.9987408,17.7133976 Z M93.6564584,15.1865329 C93.6564584,13.6655076 93.7300569,12.1935475 92.7978154,12.1935475 C91.6202475,12.1935475 91.7429103,13.6409748 91.6938452,15.1865329 L93.6564584,15.1865329 Z M109.982948,17.7133976 L103.678054,17.7133976 C103.678054,19.1117596 104.364968,19.3816189 105.518003,19.3816189 C106.916365,19.3816189 109.320567,18.8664329 109.320567,18.8664329 L109.320567,22.2519409 C109.320567,22.2519409 107.456084,22.914323 105.518003,22.914323 C102.598616,22.914323 99.0413788,22.4482023 99.0413788,16.2169049 C99.0413788,10.7215874 101.838103,9.42135615 104.782023,9.42135615 C107.799541,9.42135615 109.982948,10.9669141 109.982948,16.1678396 L109.982948,17.7133976 Z M105.640667,15.1865329 C105.640667,13.6655076 105.714264,12.1935475 104.782023,12.1935475 C103.604455,12.1935475 103.727119,13.6409748 103.678054,15.1865329 L105.640667,15.1865329 Z" id="strivee"></path>
            <g id="Group">
                <path d="M15.7495691,8.9573162 L14.2837347,8.9573162 L10.0843112,4.30781735 L7.31119336,11.8980155 L7.54891095,12.4940855 L4.26072017,20.4020348 L10.5201086,23.7416667 L10.9651558,25.3365764 L13.4103108,27.1141852 L11.4778496,21.4148256 L10.7578262,21.9121443 L7.62807756,20.0458346 L8.6581145,18.9316851 L7.11311351,17.8985845 C7.11311351,17.8985845 8.69775227,12.8914655 10.5201086,12.0967055 L9.45054281,10.7057663 L10.6390219,7.16910622 L12.6594581,9.31493635 L12.2617226,10.7057663 C12.2617226,10.7057663 14.1936785,11.2696133 14.402539,13.0503957 L15.7495691,18.7395538 L15.7495691,18.7292434 L15.7495691,8.9573162 L15.7495691,8.9573162 Z M15.7751938,0 C24.4875928,0 31.5503876,7.06279484 31.5503876,15.7751938 C31.5503876,24.4875928 24.4875928,31.5503876 15.7751938,31.5503876 C7.06279484,31.5503876 0,24.4875928 0,15.7751938 C0,7.06279484 7.06279484,0 15.7751938,0 Z M10.6779959,16.658475 L11.3122711,18.537821 L13.2546502,19.1776053 L14.0546485,20.7575883 L13.492517,17.6581038 L10.6779959,16.658475 Z M15.7495691,8.9573162 L15.7495691,18.7292434 L17.1025007,13.0503957 C17.3123098,11.2696133 19.1913274,10.7057663 19.1913274,10.7057663 L18.8534984,9.31493635 L20.8832207,7.16910622 L22.0770976,10.7057663 L21.0025646,12.0967055 C22.8331979,12.8914655 24.4251432,17.8985845 24.4251432,17.8985845 L22.8730156,18.9316851 L23.9077309,20.0458346 L20.7637673,21.9121443 L20.0739341,21.4148256 L18.1020349,27.1155029 L19.4191775,26.1604484 L19.9060139,25.8074453 L20.5077519,25.3711276 L20.8832207,23.7022287 L27.2903825,20.4020348 L23.9873665,12.4940855 L24.2260544,11.8980155 L21.4403413,4.30781735 L17.2218446,8.9573162 L15.7495691,8.9573162 Z M20.8723917,16.658475 L18.0577616,17.6581038 L17.4256837,20.7443798 L18.2957374,19.1776053 L20.2381165,18.537821 L20.8723917,16.658475 Z M17.5539808,25.1161441 L16.3667636,25.3056956 L15.748656,25.3056956 L15.748656,27.2371678 L16.9188953,26.7120429 L17.5539808,25.1161441 Z M13.9432811,25.1161468 L14.5783665,26.7120456 L15.7486059,27.2371705 L15.7486059,25.3056983 L15.1304983,25.3056983 L13.9432811,25.1161468 Z" id="logo-round"></path>
                <polygon id="Triangle" transform="translate(26.860465, 20.038760) rotate(-49.270020) translate(-26.860465, -20.038760) " points="26.8604651 18.7596899 28.9922481 21.3178295 24.7286822 21.3178295"></polygon>
                <polygon id="Triangle-Copy" transform="translate(5.542636, 20.038760) scale(-1, 1) rotate(-49.270020) translate(-5.542636, -20.038760) " points="5.54263566 18.7596899 7.6744186 21.3178295 3.41085271 21.3178295"></polygon>
            </g>
        </g>
    </g>
</svg>